# xmcd CD database file
#
# Track frame offsets:
#	183
#	15040
#	38110
#	61833
#	77940
#	101085
#	123633
#	145998
#	181350
#	197395
#	223018
#	246530
#
# Disc length: 3964 seconds
#
# Revision: 0
# Processed by: cddbd v1.5.1PL0 Copyright (c) Steve Scherf et al.
# Submitted via: CDex 1.50
#
DISCID=a60f7a0c
DTITLE=Bavarian Jazz Cats - Swing That Music
DYEAR=1993
DGENRE=Jazz
TTITLE0=Swing that music
TTITLE1=As long as I live
TTITLE2=I want a little girl
TTITLE3=Who's sorry now
TTITLE4=Somebody loves me
TTITLE5=Savoy Blues
TTITLE6=Someday you'll be sorry
TTITLE7=Just a closer walk
TTITLE8=Way down yonder in New Orleans
TTITLE9=Makin' Whoopee
TTITLE10=On a slow boat to China
TTITLE11=Things ain't what they used to be
EXTD=YEAR: 1993
EXTT0=
EXTT1=
EXTT2=
EXTT3=
EXTT4=
EXTT5=
EXTT6=
EXTT7=
EXTT8=
EXTT9=
EXTT10=
EXTT11=
PLAYORDER=
